# xmcd CD database file
#
# Track frame offsets:
#	150
#	74390
#	99685
#	120402
#	163232
#
# Disc length: 2867 seconds
#
# Revision: 0
# Processed by: cddbd v1.5.1PL0 Copyright (c) Steve Scherf et al.
# Submitted via: CDex 1.51
#
DISCID=400b3105
DTITLE=Helloween - Follow The Pumpkin 2
DYEAR=1987
DGENRE=Heavy Metal
TTITLE0=Halloween
TTITLE1=Follow The Sign
TTITLE2=Starlight
TTITLE3=Victim Of Fate
TTITLE4=How Many Tears
EXTD=YEAR: 1987
EXTT0=
EXTT1=
EXTT2=
EXTT3=
EXTT4=
PLAYORDER=
